<svg width="20" height="16" viewBox="0 0 20 16" fill="none" xmlns="http://www.w3.org/2000/svg">
<path fill-rule="evenodd" clip-rule="evenodd" d="M1.59399 3.948C1.59399 2.70536 2.60135 1.698 3.84399 1.698H15.844C17.0866 1.698 18.094 2.70536 18.094 3.948V5.198H1.59399V3.948ZM0.0939941 5.948V3.948C0.0939941 1.87693 1.77293 0.197998 3.84399 0.197998H15.844C17.9151 0.197998 19.594 1.87693 19.594 3.948V5.948V11.948C19.594 14.0191 17.9151 15.698 15.844 15.698H3.84399C1.77293 15.698 0.0939941 14.0191 0.0939941 11.948V5.948ZM18.094 6.698V11.948C18.094 13.1906 17.0866 14.198 15.844 14.198H3.84399C2.60135 14.198 1.59399 13.1906 1.59399 11.948V6.698H18.094ZM4.09399 10.948C4.09399 10.5338 4.42978 10.198 4.84399 10.198H4.85399C5.26821 10.198 5.60399 10.5338 5.60399 10.948C5.60399 11.3622 5.26821 11.698 4.85399 11.698H4.84399C4.42978 11.698 4.09399 11.3622 4.09399 10.948ZM8.84399 10.198C8.42978 10.198 8.09399 10.5338 8.09399 10.948C8.09399 11.3622 8.42978 11.698 8.84399 11.698H10.844C11.2582 11.698 11.594 11.3622 11.594 10.948C11.594 10.5338 11.2582 10.198 10.844 10.198H8.84399Z" fill="#905125"/>
</svg>
