<svg width="14" height="16" viewBox="0 0 14 16" fill="none" xmlns="http://www.w3.org/2000/svg">
<path d="M3.08979 15.048C2.67424 15.048 2.31924 14.9009 2.02479 14.6066C1.73049 14.3121 1.58333 13.9571 1.58333 13.5416V2.96471H0.75V1.71471H4.5V0.977623H9.5V1.71471H13.25V2.96471H12.4167V13.5416C12.4167 13.9626 12.2708 14.3189 11.9792 14.6105C11.6875 14.9022 11.3312 15.048 10.9102 15.048H3.08979ZM11.1667 2.96471H2.83333V13.5416C2.83333 13.6164 2.85736 13.6779 2.90542 13.726C2.95347 13.774 3.01493 13.798 3.08979 13.798H10.9102C10.9744 13.798 11.0331 13.7713 11.0865 13.7178C11.1399 13.6645 11.1667 13.6057 11.1667 13.5416V2.96471ZM4.83667 12.1314H6.08646V4.63137H4.83667V12.1314ZM7.91354 12.1314H9.16333V4.63137H7.91354V12.1314Z" fill="#121212"/>
</svg>
