<svg width="19" height="15" viewBox="0 0 19 15" fill="none" xmlns="http://www.w3.org/2000/svg">
<path d="M2.16666 14.8334C1.66249 14.8334 1.2309 14.6539 0.87187 14.2949C0.512842 13.9358 0.333328 13.5042 0.333328 13.0001V2.00008C0.333328 1.49591 0.512842 1.06432 0.87187 0.70529C1.2309 0.346262 1.66249 0.166748 2.16666 0.166748H16.8333C17.3375 0.166748 17.7691 0.346262 18.1281 0.70529C18.4871 1.06432 18.6667 1.49591 18.6667 2.00008V13.0001C18.6667 13.5042 18.4871 13.9358 18.1281 14.2949C17.7691 14.6539 17.3375 14.8334 16.8333 14.8334H2.16666ZM9.5 8.41675L2.16666 3.83341V13.0001H16.8333V3.83341L9.5 8.41675ZM9.5 6.58342L16.8333 2.00008H2.16666L9.5 6.58342ZM2.16666 3.83341V2.00008V13.0001V3.83341Z" fill="#905125" fill-opacity="0.6"/>
</svg>
